<svg width="228" height="30" viewBox="0 0 228 30" fill="none" xmlns="http://www.w3.org/2000/svg">
<path d="M170.72 19.94C170.72 20.54 170.527 21 170.14 21.32C169.767 21.6267 169.34 21.78 168.86 21.78C168.38 21.78 167.947 21.6267 167.56 21.32C167.187 21 167 20.54 167 19.94C167 19.34 167.187 18.8867 167.56 18.58C167.947 18.26 168.38 18.1 168.86 18.1C169.34 18.1 169.767 18.26 170.14 18.58C170.527 18.8867 170.72 19.34 170.72 19.94Z" fill="#116E67"/>
<path d="M176.136 19.44C176.43 19.44 176.71 19.4333 176.976 19.42C177.243 19.4067 177.456 19.3867 177.616 19.36V17.1C177.496 17.0733 177.316 17.0467 177.076 17.02C176.836 16.9933 176.616 16.98 176.416 16.98C176.136 16.98 175.87 17 175.616 17.04C175.376 17.0667 175.163 17.1267 174.976 17.22C174.79 17.3133 174.643 17.44 174.536 17.6C174.43 17.76 174.376 17.96 174.376 18.2C174.376 18.6667 174.53 18.9933 174.836 19.18C175.156 19.3533 175.59 19.44 176.136 19.44ZM175.896 10.72C176.776 10.72 177.51 10.82 178.096 11.02C178.683 11.22 179.15 11.5067 179.496 11.88C179.856 12.2533 180.11 12.7067 180.256 13.24C180.403 13.7733 180.476 14.3667 180.476 15.02V21.22C180.05 21.3133 179.456 21.42 178.696 21.54C177.936 21.6733 177.016 21.74 175.936 21.74C175.256 21.74 174.636 21.68 174.076 21.56C173.53 21.44 173.056 21.2467 172.656 20.98C172.256 20.7 171.95 20.34 171.736 19.9C171.523 19.46 171.416 18.92 171.416 18.28C171.416 17.6667 171.536 17.1467 171.776 16.72C172.03 16.2933 172.363 15.9533 172.776 15.7C173.19 15.4467 173.663 15.2667 174.196 15.16C174.73 15.04 175.283 14.98 175.856 14.98C176.243 14.98 176.583 15 176.876 15.04C177.183 15.0667 177.43 15.1067 177.616 15.16V14.88C177.616 14.3733 177.463 13.9667 177.156 13.66C176.85 13.3533 176.316 13.2 175.556 13.2C175.05 13.2 174.55 13.24 174.056 13.32C173.563 13.3867 173.136 13.4867 172.776 13.62L172.396 11.22C172.57 11.1667 172.783 11.1133 173.036 11.06C173.303 10.9933 173.59 10.94 173.896 10.9C174.203 10.8467 174.523 10.8067 174.856 10.78C175.203 10.74 175.55 10.72 175.896 10.72Z" fill="#116E67"/>
<path d="M185.711 16.18C185.711 17.1 185.918 17.84 186.331 18.4C186.744 18.96 187.358 19.24 188.171 19.24C188.438 19.24 188.684 19.2333 188.911 19.22C189.138 19.1933 189.324 19.1667 189.471 19.14V13.72C189.284 13.6 189.038 13.5 188.731 13.42C188.438 13.34 188.138 13.3 187.831 13.3C186.418 13.3 185.711 14.26 185.711 16.18ZM192.451 21.18C192.184 21.26 191.878 21.34 191.531 21.42C191.184 21.4867 190.818 21.5467 190.431 21.6C190.058 21.6533 189.671 21.6933 189.271 21.72C188.884 21.76 188.511 21.78 188.151 21.78C187.284 21.78 186.511 21.6533 185.831 21.4C185.151 21.1467 184.578 20.7867 184.111 20.32C183.644 19.84 183.284 19.2667 183.031 18.6C182.791 17.92 182.671 17.16 182.671 16.32C182.671 15.4667 182.778 14.7 182.991 14.02C183.204 13.3267 183.511 12.74 183.911 12.26C184.311 11.78 184.798 11.4133 185.371 11.16C185.958 10.9067 186.624 10.78 187.371 10.78C187.784 10.78 188.151 10.82 188.471 10.9C188.804 10.98 189.138 11.0933 189.471 11.24V6.48L192.451 6V21.18Z" fill="#116E67"/>
<path d="M201.021 15.94C201.021 14.98 200.895 14.3 200.641 13.9C200.401 13.5 199.981 13.3 199.381 13.3C199.195 13.3 199.001 13.3133 198.801 13.34C198.601 13.3533 198.408 13.3733 198.221 13.4V21.52H195.241V11.36C195.495 11.2933 195.788 11.2267 196.121 11.16C196.468 11.08 196.828 11.0133 197.201 10.96C197.588 10.8933 197.981 10.8467 198.381 10.82C198.781 10.78 199.175 10.76 199.561 10.76C200.321 10.76 200.935 10.86 201.401 11.06C201.881 11.2467 202.275 11.4733 202.581 11.74C203.008 11.4333 203.495 11.1933 204.041 11.02C204.601 10.8467 205.115 10.76 205.581 10.76C206.421 10.76 207.108 10.88 207.641 11.12C208.188 11.3467 208.621 11.6733 208.941 12.1C209.261 12.5267 209.481 13.0333 209.601 13.62C209.721 14.2067 209.781 14.86 209.781 15.58V21.52H206.801V15.94C206.801 14.98 206.675 14.3 206.421 13.9C206.181 13.5 205.761 13.3 205.161 13.3C205.001 13.3 204.775 13.34 204.481 13.42C204.201 13.5 203.968 13.6 203.781 13.72C203.875 14.0267 203.935 14.3533 203.961 14.7C203.988 15.0333 204.001 15.3933 204.001 15.78V21.52H201.021V15.94Z" fill="#116E67"/>
<path d="M215.468 21.52H212.488V11H215.468V21.52ZM215.748 7.96C215.748 8.50667 215.568 8.94 215.208 9.26C214.861 9.56667 214.448 9.72 213.968 9.72C213.488 9.72 213.068 9.56667 212.708 9.26C212.361 8.94 212.188 8.50667 212.188 7.96C212.188 7.41333 212.361 6.98667 212.708 6.68C213.068 6.36 213.488 6.2 213.968 6.2C214.448 6.2 214.861 6.36 215.208 6.68C215.568 6.98667 215.748 7.41333 215.748 7.96Z" fill="#116E67"/>
<path d="M218.269 11.36C218.775 11.2133 219.429 11.08 220.229 10.96C221.029 10.8267 221.869 10.76 222.749 10.76C223.642 10.76 224.382 10.88 224.969 11.12C225.569 11.3467 226.042 11.6733 226.389 12.1C226.735 12.5267 226.982 13.0333 227.129 13.62C227.275 14.2067 227.349 14.86 227.349 15.58V21.52H224.369V15.94C224.369 14.98 224.242 14.3 223.989 13.9C223.735 13.5 223.262 13.3 222.569 13.3C222.355 13.3 222.129 13.3133 221.889 13.34C221.649 13.3533 221.435 13.3733 221.249 13.4V21.52H218.269V11.36Z" fill="#116E67"/>
<path d="M17.0155 15.1612C17.0155 16.0414 16.8474 16.8672 16.5111 17.6386C16.1749 18.41 15.715 19.0874 15.1315 19.6709C14.5579 20.2445 13.8854 20.6995 13.114 21.0357C12.3425 21.372 11.5167 21.5401 10.6365 21.5401H0V0.267026H10.6365C11.5167 0.267026 12.3425 0.435154 13.114 0.77141C13.8854 1.10766 14.5579 1.56754 15.1315 2.15105C15.715 2.72466 16.1749 3.39717 16.5111 4.16858C16.8474 4.93999 17.0155 5.76579 17.0155 6.64599C17.0155 7.04158 16.9611 7.44707 16.8523 7.86244C16.7435 8.27781 16.5902 8.67835 16.3924 9.06406C16.1947 9.44976 15.9573 9.80085 15.6804 10.1173C15.4035 10.4338 15.0969 10.6959 14.7606 10.9036C15.1068 11.0915 15.4183 11.3486 15.6952 11.675C15.9721 11.9915 16.2095 12.3425 16.4073 12.7283C16.6051 13.114 16.7534 13.5194 16.8523 13.9447C16.9611 14.3601 17.0155 14.7656 17.0155 15.1612ZM4.25759 17.2825H10.6365C10.9332 17.2825 11.2102 17.2281 11.4673 17.1194C11.7244 17.0106 11.947 16.8622 12.1349 16.6743C12.3327 16.4765 12.486 16.249 12.5947 15.9919C12.7035 15.7348 12.7579 15.4579 12.7579 15.1612C12.7579 14.8645 12.7035 14.5875 12.5947 14.3304C12.486 14.0733 12.3327 13.8508 12.1349 13.6628C11.947 13.465 11.7244 13.3118 11.4673 13.203C11.2102 13.0942 10.9332 13.0398 10.6365 13.0398H4.25759V17.2825ZM4.25759 8.7822H10.6365C10.9332 8.7822 11.2102 8.7278 11.4673 8.61902C11.7244 8.51023 11.947 8.36188 12.1349 8.17397C12.3327 7.97617 12.486 7.74871 12.5947 7.49157C12.7035 7.22455 12.7579 6.94268 12.7579 6.64599C12.7579 6.34929 12.7035 6.07238 12.5947 5.81524C12.486 5.5581 12.3327 5.33558 12.1349 5.14767C11.947 4.94988 11.7244 4.79658 11.4673 4.6878C11.2102 4.57901 10.9332 4.52461 10.6365 4.52461H4.25759V8.7822Z" fill="#253021"/>
<path d="M41.0775 10.9926C41.0775 12.0013 40.944 12.9755 40.677 13.915C40.4199 14.8447 40.0539 15.7199 39.5792 16.5408C39.1045 17.3518 38.5309 18.0935 37.8584 18.766C37.1859 19.4385 36.4441 20.0171 35.6332 20.5017C34.8222 20.9764 33.947 21.3423 33.0074 21.5995C32.0679 21.8665 31.0937 22 30.085 22C29.0762 22 28.102 21.8665 27.1625 21.5995C26.2329 21.3423 25.3576 20.9764 24.5367 20.5017C23.7258 20.0171 22.984 19.4385 22.3115 18.766C21.639 18.0935 21.0605 17.3518 20.5759 16.5408C20.1011 15.7199 19.7303 14.8447 19.4633 13.915C19.2061 12.9755 19.0775 12.0013 19.0775 10.9926C19.0775 9.98382 19.2061 9.00966 19.4633 8.07013C19.7303 7.13059 20.1011 6.25534 20.5759 5.44437C21.0605 4.6334 21.639 3.89166 22.3115 3.21915C22.984 2.54664 23.7258 1.97303 24.5367 1.49831C25.3576 1.0236 26.2329 0.657676 27.1625 0.40054C28.102 0.133513 29.0762 0 30.085 0C31.0937 0 32.0679 0.133513 33.0074 0.40054C33.947 0.657676 34.8222 1.0236 35.6332 1.49831C36.4441 1.97303 37.1859 2.54664 37.8584 3.21915C38.5309 3.89166 39.1045 4.6334 39.5792 5.44437C40.0539 6.25534 40.4199 7.13059 40.677 8.07013C40.944 9.00966 41.0775 9.98382 41.0775 10.9926ZM36.8496 10.9926C36.8496 10.0629 36.6716 9.18768 36.3156 8.36682C35.9595 7.53608 35.4749 6.81906 34.8618 6.21578C34.2585 5.60261 33.5415 5.118 32.7107 4.76197C31.8899 4.40593 31.0146 4.22792 30.085 4.22792C29.1454 4.22792 28.2652 4.40593 27.4444 4.76197C26.6235 5.118 25.9065 5.60261 25.2933 6.21578C24.6802 6.81906 24.1956 7.53608 23.8395 8.36682C23.4835 9.18768 23.3055 10.0629 23.3055 10.9926C23.3055 11.9222 23.4835 12.7975 23.8395 13.6183C24.1956 14.4293 24.6802 15.1414 25.2933 15.7546C25.9065 16.3677 26.6235 16.8523 27.4444 17.2084C28.2652 17.5644 29.1454 17.7424 30.085 17.7424C31.0146 17.7424 31.8899 17.5644 32.7107 17.2084C33.5415 16.8523 34.2585 16.3677 34.8618 15.7546C35.4749 15.1414 35.9595 14.4293 36.3156 13.6183C36.6716 12.7975 36.8496 11.9222 36.8496 10.9926Z" fill="#253021"/>
<path d="M64.7242 10.9926C64.7242 12.0013 64.5907 12.9755 64.3237 13.915C64.0665 14.8447 63.7006 15.7199 63.2259 16.5408C62.7512 17.3518 62.1776 18.0935 61.5051 18.766C60.8325 19.4385 60.0908 20.0171 59.2798 20.5017C58.4689 20.9764 57.5936 21.3423 56.6541 21.5995C55.7145 21.8665 54.7404 22 53.7316 22C52.7229 22 51.7487 21.8665 50.8092 21.5995C49.8795 21.3423 49.0043 20.9764 48.1834 20.5017C47.3724 20.0171 46.6307 19.4385 45.9582 18.766C45.2857 18.0935 44.7071 17.3518 44.2225 16.5408C43.7478 15.7199 43.3769 14.8447 43.1099 13.915C42.8528 12.9755 42.7242 12.0013 42.7242 10.9926C42.7242 9.98382 42.8528 9.00966 43.1099 8.07013C43.3769 7.13059 43.7478 6.25534 44.2225 5.44437C44.7071 4.6334 45.2857 3.89166 45.9582 3.21915C46.6307 2.54664 47.3724 1.97303 48.1834 1.49831C49.0043 1.0236 49.8795 0.657676 50.8092 0.40054C51.7487 0.133513 52.7229 0 53.7316 0C54.7404 0 55.7145 0.133513 56.6541 0.40054C57.5936 0.657676 58.4689 1.0236 59.2798 1.49831C60.0908 1.97303 60.8325 2.54664 61.5051 3.21915C62.1776 3.89166 62.7512 4.6334 63.2259 5.44437C63.7006 6.25534 64.0665 7.13059 64.3237 8.07013C64.5907 9.00966 64.7242 9.98382 64.7242 10.9926ZM60.4963 10.9926C60.4963 10.0629 60.3183 9.18768 59.9622 8.36682C59.6062 7.53608 59.1216 6.81906 58.5084 6.21578C57.9052 5.60261 57.1881 5.118 56.3574 4.76197C55.5365 4.40593 54.6613 4.22792 53.7316 4.22792C52.7921 4.22792 51.9119 4.40593 51.091 4.76197C50.2702 5.118 49.5532 5.60261 48.94 6.21578C48.3268 6.81906 47.8422 7.53608 47.4862 8.36682C47.1301 9.18768 46.9521 10.0629 46.9521 10.9926C46.9521 11.9222 47.1301 12.7975 47.4862 13.6183C47.8422 14.4293 48.3268 15.1414 48.94 15.7546C49.5532 16.3677 50.2702 16.8523 51.091 17.2084C51.9119 17.5644 52.7921 17.7424 53.7316 17.7424C54.6613 17.7424 55.5365 17.5644 56.3574 17.2084C57.1881 16.8523 57.9052 16.3677 58.5084 15.7546C59.1216 15.1414 59.6062 14.4293 59.9622 13.6183C60.3183 12.7975 60.4963 11.9222 60.4963 10.9926Z" fill="#253021"/>
<path d="M71.7856 21.5401H67.528V0.267026H71.7856V10.9036L79.7074 0.267026H84.5435L77.8233 9.24208L84.5435 21.5401H79.7074L75.0344 12.9359L71.7856 17.2825V21.5401Z" fill="#253021"/>
<path d="M106.647 10.9926C106.647 12.0013 106.514 12.9755 106.247 13.915C105.99 14.8447 105.624 15.7199 105.149 16.5408C104.674 17.3518 104.101 18.0935 103.428 18.766C102.756 19.4385 102.014 20.0171 101.203 20.5017C100.392 20.9764 99.5168 21.3423 98.5772 21.5995C97.6377 21.8665 96.6635 22 95.6548 22C94.646 22 93.6718 21.8665 92.7323 21.5995C91.8027 21.3423 90.9274 20.9764 90.1065 20.5017C89.2956 20.0171 88.5538 19.4385 87.8813 18.766C87.2088 18.0935 86.6303 17.3518 86.1457 16.5408C85.6709 15.7199 85.3001 14.8447 85.0331 13.915C84.7759 12.9755 84.6473 12.0013 84.6473 10.9926C84.6473 9.98382 84.7759 9.00966 85.0331 8.07013C85.3001 7.13059 85.6709 6.25534 86.1457 5.44437C86.6303 4.6334 87.2088 3.89166 87.8813 3.21915C88.5538 2.54664 89.2956 1.97303 90.1065 1.49831C90.9274 1.0236 91.8027 0.657676 92.7323 0.40054C93.6718 0.133513 94.646 0 95.6548 0C96.6635 0 97.6377 0.133513 98.5772 0.40054C99.5168 0.657676 100.392 1.0236 101.203 1.49831C102.014 1.97303 102.756 2.54664 103.428 3.21915C104.101 3.89166 104.674 4.6334 105.149 5.44437C105.624 6.25534 105.99 7.13059 106.247 8.07013C106.514 9.00966 106.647 9.98382 106.647 10.9926ZM102.419 10.9926C102.419 10.0629 102.241 9.18768 101.885 8.36682C101.529 7.53608 101.045 6.81906 100.432 6.21578C99.8283 5.60261 99.1113 5.118 98.2805 4.76197C97.4597 4.40593 96.5844 4.22792 95.6548 4.22792C94.7152 4.22792 93.835 4.40593 93.0142 4.76197C92.1933 5.118 91.4763 5.60261 90.8631 6.21578C90.25 6.81906 89.7653 7.53608 89.4093 8.36682C89.0533 9.18768 88.8753 10.0629 88.8753 10.9926C88.8753 11.9222 89.0533 12.7975 89.4093 13.6183C89.7653 14.4293 90.25 15.1414 90.8631 15.7546C91.4763 16.3677 92.1933 16.8523 93.0142 17.2084C93.835 17.5644 94.7152 17.7424 95.6548 17.7424C96.5844 17.7424 97.4597 17.5644 98.2805 17.2084C99.1113 16.8523 99.8283 16.3677 100.432 15.7546C101.045 15.1414 101.529 14.4293 101.885 13.6183C102.241 12.7975 102.419 11.9222 102.419 10.9926Z" fill="#253021"/>
<path d="M125.324 0.267026L118.337 21.5401H114.08L107.122 0.267026H111.958L116.201 14.4639L120.459 0.267026H125.324Z" fill="#253021"/>
<path d="M141.954 21.5401H127.372V0.267026H141.954V4.52461H131.629V8.7822H138.616V13.0398H131.629V17.2825H141.954V21.5401Z" fill="#253021"/>
<path d="M149.194 4.52461V13.0398H153.451C154.035 13.0398 154.584 12.931 155.098 12.7134C155.612 12.486 156.062 12.1794 156.448 11.7937C156.833 11.408 157.135 10.958 157.353 10.4437C157.58 9.91953 157.694 9.3657 157.694 8.7822C157.694 8.1987 157.58 7.64981 157.353 7.13554C157.135 6.61137 156.833 6.15644 156.448 5.77074C156.062 5.38503 155.612 5.08339 155.098 4.86581C154.584 4.63835 154.035 4.52461 153.451 4.52461H149.194ZM149.194 21.5401H144.936V0.267026H153.451C154.232 0.267026 154.984 0.37087 155.706 0.578557C156.428 0.776355 157.1 1.06316 157.724 1.43898C158.356 1.8049 158.93 2.24994 159.444 2.77411C159.969 3.28838 160.414 3.86199 160.78 4.49494C161.155 5.12789 161.442 5.80535 161.64 6.52731C161.848 7.24927 161.951 8.0009 161.951 8.7822C161.951 9.51405 161.857 10.2261 161.67 10.9184C161.492 11.6107 161.229 12.2684 160.883 12.8914C160.547 13.5145 160.132 14.0881 159.637 14.6123C159.143 15.1364 158.589 15.5914 157.976 15.9771L160.334 21.5401H155.81L153.956 17.2529L149.194 17.2825V21.5401Z" fill="#253021"/>
<path d="M92.382 9.23076L95.6381 6.65112C95.6913 6.609 95.7583 6.58594 95.8275 6.58594C95.8968 6.58594 95.9638 6.609 96.017 6.65112L99.2731 9.23076C99.3065 9.25716 99.3333 9.2902 99.3517 9.32755C99.3701 9.3649 99.3797 9.40565 99.3797 9.4469V14.0996C99.3797 14.1742 99.3485 14.2458 99.293 14.2986C99.2375 14.3514 99.1622 14.381 99.0837 14.381H92.5714C92.4929 14.381 92.4176 14.3514 92.3621 14.2986C92.3066 14.2458 92.2754 14.1742 92.2754 14.0996V9.4469C92.2754 9.40565 92.285 9.3649 92.3034 9.32755C92.3218 9.2902 92.3486 9.25716 92.382 9.23076Z" fill="#85F698"/>
<path d="M34.8717 11.4124C34.8717 13.187 33.4331 14.6256 31.6585 14.6256C29.8839 14.6256 28.4453 13.187 28.4453 11.4124C28.4453 9.63781 29.8839 8.19922 31.6585 8.19922C33.4331 8.19922 34.8717 9.63781 34.8717 11.4124Z" fill="#253021"/>
<path d="M58.6041 11.4124C58.6041 13.187 57.1655 14.6256 55.3909 14.6256C53.6163 14.6256 52.1777 13.187 52.1777 11.4124C52.1777 9.63781 53.6163 8.19922 55.3909 8.19922C57.1655 8.19922 58.6041 9.63781 58.6041 11.4124Z" fill="#253021"/>
<path d="M101 18.3945L109.053 27.8756" stroke="#253021" stroke-width="3.90959" stroke-linecap="round"/>
</svg>
